<?xml version="1.0" encoding="UTF-8" standalone="no"?>
<!DOCTYPE svg PUBLIC "-//W3C//DTD SVG 1.1//EN"
 "http://www.w3.org/Graphics/SVG/1.1/DTD/svg11.dtd">
<!-- Generated by graphviz version 2.40.1 (20161225.0304)
 -->
<!-- Title: G Pages: 1 -->
<svg width="692pt" height="236pt"
 viewBox="0.00 0.00 692.00 236.00" xmlns="http://www.w3.org/2000/svg" xmlns:xlink="http://www.w3.org/1999/xlink">
<g id="graph0" class="graph" transform="scale(1 1) rotate(0) translate(4 232)">
<title>G</title>
<polygon fill="#ffffff" stroke="transparent" points="-4,4 -4,-232 688,-232 688,4 -4,4"/>
<!-- A0 -->
<g id="node1" class="node">
<title>A0</title>
<polygon fill="none" stroke="#000000" points=".5,-166 .5,-198 219.5,-198 219.5,-166 .5,-166"/>
<text text-anchor="start" x="99.4465" y="-179" font-family="Helvetica,sans-Serif" font-size="10.00" fill="#000000">CAH</text>
<polygon fill="none" stroke="#000000" points=".5,-86 .5,-166 219.5,-166 219.5,-86 .5,-86"/>
<text text-anchor="start" x="102.9115" y="-147" font-family="Helvetica,sans-Serif" font-size="10.00" fill="#000000">+df</text>
<text text-anchor="start" x="88.468" y="-135" font-family="Helvetica,sans-Serif" font-size="10.00" fill="#000000">+columns</text>
<text text-anchor="start" x="104.026" y="-123" font-family="Helvetica,sans-Serif" font-size="10.00" fill="#000000">+Z</text>
<text text-anchor="start" x="78.1805" y="-111" font-family="Helvetica,sans-Serif" font-size="10.00" fill="#000000">+df_mean_std</text>
<text text-anchor="start" x="89.858" y="-99" font-family="Helvetica,sans-Serif" font-size="10.00" fill="#000000">+clusters</text>
<polygon fill="none" stroke="#000000" points=".5,-30 .5,-86 219.5,-86 219.5,-30 .5,-30"/>
<text text-anchor="start" x="72.221" y="-67" font-family="Helvetica,sans-Serif" font-size="10.00" fill="#000000">scale(scalertype)</text>
<text text-anchor="start" x="10.265" y="-55" font-family="Helvetica,sans-Serif" font-size="10.00" fill="#000000">dendogramme(ax,title,xlabel,ylabel,labelsize)</text>
<text text-anchor="start" x="66.667" y="-43" font-family="Helvetica,sans-Serif" font-size="10.00" fill="#000000">clusters(n_clusters)</text>
</g>
<!-- A1 -->
<g id="node2" class="node">
<title>A1</title>
<polygon fill="none" stroke="#000000" points="237.5,-154 237.5,-186 377.5,-186 377.5,-154 237.5,-154"/>
<text text-anchor="start" x="286.388" y="-167" font-family="Helvetica,sans-Serif" font-size="10.00" fill="#000000">KMEANS</text>
<polygon fill="none" stroke="#000000" points="237.5,-98 237.5,-154 377.5,-154 377.5,-98 237.5,-98"/>
<text text-anchor="start" x="300.4115" y="-135" font-family="Helvetica,sans-Serif" font-size="10.00" fill="#000000">+df</text>
<text text-anchor="start" x="285.968" y="-123" font-family="Helvetica,sans-Serif" font-size="10.00" fill="#000000">+columns</text>
<text text-anchor="start" x="287.358" y="-111" font-family="Helvetica,sans-Serif" font-size="10.00" fill="#000000">+clusters</text>
<polygon fill="none" stroke="#000000" points="237.5,-42 237.5,-98 377.5,-98 377.5,-42 237.5,-42"/>
<text text-anchor="start" x="248.053" y="-79" font-family="Helvetica,sans-Serif" font-size="10.00" fill="#000000">plot_inertial(ax,title,k_max)</text>
<text text-anchor="start" x="253.881" y="-67" font-family="Helvetica,sans-Serif" font-size="10.00" fill="#000000">plot_silhouette(ax,k_list)</text>
<text text-anchor="start" x="247.489" y="-55" font-family="Helvetica,sans-Serif" font-size="10.00" fill="#000000">kmean_choose(n_clusters)</text>
</g>
<!-- A2 -->
<g id="node3" class="node">
<title>A2</title>
<polygon fill="none" stroke="#000000" points="395.5,-196 395.5,-228 684.5,-228 684.5,-196 395.5,-196"/>
<text text-anchor="start" x="529.7215" y="-209" font-family="Helvetica,sans-Serif" font-size="10.00" fill="#000000">ACP</text>
<polygon fill="none" stroke="#000000" points="395.5,-68 395.5,-196 684.5,-196 684.5,-68 395.5,-68"/>
<text text-anchor="start" x="532.9115" y="-177" font-family="Helvetica,sans-Serif" font-size="10.00" fill="#000000">+df</text>
<text text-anchor="start" x="518.468" y="-165" font-family="Helvetica,sans-Serif" font-size="10.00" fill="#000000">+columns</text>
<text text-anchor="start" x="504.2905" y="-153" font-family="Helvetica,sans-Serif" font-size="10.00" fill="#000000">+n_components</text>
<text text-anchor="start" x="529.0215" y="-141" font-family="Helvetica,sans-Serif" font-size="10.00" fill="#000000">+pca</text>
<text text-anchor="start" x="533.746" y="-129" font-family="Helvetica,sans-Serif" font-size="10.00" fill="#000000">+X</text>
<text text-anchor="start" x="516.5185" y="-117" font-family="Helvetica,sans-Serif" font-size="10.00" fill="#000000">+X_scaled</text>
<text text-anchor="start" x="504.296" y="-105" font-family="Helvetica,sans-Serif" font-size="10.00" fill="#000000">+X_scaled_verif</text>
<text text-anchor="start" x="529.0215" y="-93" font-family="Helvetica,sans-Serif" font-size="10.00" fill="#000000">+pca</text>
<text text-anchor="start" x="529.301" y="-81" font-family="Helvetica,sans-Serif" font-size="10.00" fill="#000000">+pcs</text>
<polygon fill="none" stroke="#000000" points="395.5,0 395.5,-68 684.5,-68 684.5,0 395.5,0"/>
<text text-anchor="start" x="502.221" y="-49" font-family="Helvetica,sans-Serif" font-size="10.00" fill="#000000">scale(scalertype)</text>
<text text-anchor="start" x="518.8885" y="-37" font-family="Helvetica,sans-Serif" font-size="10.00" fill="#000000">pca_evr()</text>
<text text-anchor="start" x="484.445" y="-25" font-family="Helvetica,sans-Serif" font-size="10.00" fill="#000000">correlation_circle(ax,x_y)</text>
<text text-anchor="start" x="405.2595" y="-13" font-family="Helvetica,sans-Serif" font-size="10.00" fill="#000000">display_factorial_planes(ax,x_y,labels,clusters,alpha,marker)</text>
</g>
</g>
</svg>
